<svg width="512" height="512" viewBox="0 0 512 512" style="color:currentColor" xmlns="http://www.w3.org/2000/svg" class="h-full w-full"><rect width="512" height="512" x="0" y="0" rx="30" fill="transparent" stroke="transparent" stroke-width="0" stroke-opacity="100%" paint-order="stroke"></rect><svg width="256px" height="256px" viewBox="0 0 640 480" fill="currentColor" x="128" y="128" role="img" style="display:inline-block;vertical-align:middle" xmlns="http://www.w3.org/2000/svg"><g fill="currentColor"><path fill="#012169" d="M0 0h640v480H0z"/><path fill="#FFF" d="m75 0l244 181L562 0h78v62L400 241l240 178v61h-80L320 301L81 480H0v-60l239-178L0 64V0h75z"/><path fill="#C8102E" d="m424 281l216 159v40L369 281h55zm-184 20l6 35L54 480H0l240-179zM640 0v3L391 191l2-44L590 0h50zM0 0l239 176h-60L0 42V0z"/><path fill="#FFF" d="M241 0v480h160V0H241zM0 160v160h640V160H0z"/><path fill="#C8102E" d="M0 193v96h640v-96H0zM273 0v480h96V0h-96z"/></g></svg></svg>